<svg xmlns="http://www.w3.org/2000/svg" viewBox="0 0 10.09 14.58"><defs><style>.cls-1{fill:#939598;}</style></defs><title>Artboard 35</title><g id="Layer_1" data-name="Layer 1"><path class="cls-1" d="M7.27,8.37,9.7,10.8a.75.75,0,0,1,0,1.06l-.45.45a.75.75,0,0,1-1.06,0L5.77,9.87a.75.75,0,0,0-1.06,0l-2.9,2.9a.75.75,0,0,1-1.06,0l-.54-.54a.75.75,0,0,1,0-1.06l2.9-2.9a.75.75,0,0,0,0-1.06L.68,4.78a.75.75,0,0,1,0-1.06l.45-.45a.75.75,0,0,1,1.06,0L4.62,5.71a.75.75,0,0,0,1.06,0l2.6-2.6a.75.75,0,0,1,1.06,0l.54.54a.75.75,0,0,1,0,1.06l-2.6,2.6A.75.75,0,0,0,7.27,8.37Z"/></g></svg>