<svg xmlns="http://www.w3.org/2000/svg" viewBox="0 0 16.75 15.45"><defs><style>.cls-1{fill:#939598;}</style></defs><title>Artboard 34</title><g id="Layer_1" data-name="Layer 1"><path class="cls-1" d="M13,7.71v2.37h0q0,1.66,0,3.32c0,.6-.2.8-.79.8H2c-.58,0-.78-.2-.78-.78q0-3.13,0-6.25V6.83h0V5.55h0c0-.68,0-1.34,0-2,0-.31.3-.48.69-.48H9.51l1.25-1.25H2a1.88,1.88,0,0,0-2,2q0,4.79,0,9.57a1.88,1.88,0,0,0,2,2H12.25a1.87,1.87,0,0,0,2-2q0-3.5,0-7Z"/><path class="cls-1" d="M14.41,4.86,8.58,10.69A7.66,7.66,0,0,0,7.43,9.22a7.62,7.62,0,0,0-1.5-1.16l5.85-5.84a5.51,5.51,0,0,1,2.64,2.64Z"/><path class="cls-1" d="M7.5,11.77H4.86V9.13l.32-.32a5.52,5.52,0,0,1,2.64,2.64Z"/><path class="cls-1" d="M15.18,4.1a7.61,7.61,0,0,0-2.65-2.63l.91-.91a3.26,3.26,0,0,1,2,.66,3.26,3.26,0,0,1,.66,2Z"/></g></svg>